<?xml version="1.0" encoding="UTF-8"?>
<svg width="16px" height="16px" viewBox="0 0 16 16" version="1.1" xmlns="http://www.w3.org/2000/svg" xmlns:xlink="http://www.w3.org/1999/xlink">
    <!-- Generator: Sketch 56.2 (81672) - https://sketch.com -->
    <title>点赞</title>
    <desc>Created with Sketch.</desc>
    <g id="页面-1" stroke="none" stroke-width="1" fill="none" fill-rule="evenodd">
        <g id="详情" transform="translate(-859.000000, -1668.000000)" fill="#999999" fill-rule="nonzero">
            <g id="评论" transform="translate(220.000000, 1530.000000)">
                <g id="编组-3" transform="translate(16.000000, 40.000000)">
                    <g id="点赞" transform="translate(623.000000, 98.000000)">
                        <path d="M14.4088239,6.47277878 L10.319827,6.47277878 C11.9042688,0.621046966 9.22813417,0.322173181 9.22813417,0.322173181 C8.09387816,0.322173181 8.32901375,1.21906094 8.24323599,1.3685769 C8.24323599,4.23033335 5.20362308,6.47278909 5.20362308,6.47278909 L5.20362308,14.5882548 C5.20362308,15.3893221 6.29531591,15.677837 6.72356875,15.677837 L12.8672822,15.677837 C13.445491,15.677837 13.9163413,14.1614801 13.9163413,14.1614801 C15.4363042,8.99308968 15.4363042,7.45530507 15.4363042,7.45530507 C15.4363042,6.38747883 14.4088257,6.4727994 14.4088257,6.4727994 L14.4088257,6.4727994 L14.4088257,6.4727994 L14.4088239,6.47277878 Z" id="路径"></path>
                        <path d="M3.52560035,6.47547722 L1.07711781,6.47547722 C0.571459252,6.47547722 0.563668149,6.97212951 0.563668149,6.97212951 L1.06932671,15.1568781 C1.06932671,15.6778198 1.59116559,15.6778198 1.59116559,15.6778198 L3.71033525,15.6778198 C4.15181389,15.6778198 4.14790948,15.3332169 4.14790948,15.3332169 L4.14790948,7.0961495 C4.14790948,6.46753314 3.52559003,6.47547722 3.52559003,6.47547722 L3.52559003,6.47547722 L3.52559003,6.47547722 L3.52560035,6.47547722 Z" id="路径"></path>
                    </g>
                </g>
            </g>
        </g>
    </g>
</svg>