<?xml version="1.0" encoding="UTF-8"?>
<svg width="16px" height="16px" viewBox="0 0 16 16" version="1.1" xmlns="http://www.w3.org/2000/svg" xmlns:xlink="http://www.w3.org/1999/xlink">
    <!-- Generator: Sketch 56.2 (81672) - https://sketch.com -->
    <title>search-icon</title>
    <desc>Created with Sketch.</desc>
    <g id="页面-1" stroke="none" stroke-width="1" fill="none" fill-rule="evenodd">
        <g id="首页" transform="translate(-871.000000, -20.000000)" fill="#999999" fill-rule="nonzero">
            <g id="topNavbar">
                <g id="搜索" transform="translate(855.000000, 12.000000)">
                    <g transform="translate(16.000000, 8.000000)" id="search-icon">
                        <path d="M15.541619,14.661618 L12.6464156,11.7752146 C13.7552169,10.4904131 14.3624176,8.87121125 14.3624176,7.15520926 C14.3624176,5.26320706 13.6232168,3.494405 12.2944152,2.15680344 C10.9656137,0.819201884 9.18801162,0.080001024 7.30480943,0.080001024 C5.41280723,0.080001024 3.64400517,0.819201884 2.30640361,2.14800343 C0.968802058,3.48560499 0.229601198,5.26320706 0.229601198,7.15520926 C0.229601198,9.04721146 0.968802058,10.8160135 2.2976036,12.1536151 C3.63520516,13.4912166 5.41280723,14.2216175 7.29600942,14.2216175 C8.85361123,14.2216175 10.340813,13.7200169 11.5640144,12.7960158 L14.4856178,15.7176192 C14.626418,15.8584194 14.8200182,15.9376195 15.0136184,15.9376195 C15.2072186,15.9376195 15.3920188,15.8672194 15.541619,15.7176192 C15.8320194,15.4272189 15.8320194,14.9520183 15.541619,14.661618 L15.541619,14.661618 Z M1.71680293,7.15520926 C1.71680293,4.07520567 4.22480585,1.57600276 7.29600942,1.57600276 C10.376013,1.57600276 12.8752159,4.08400568 12.8752159,7.15520926 C12.8752159,10.2352128 10.376013,12.7344157 7.29600942,12.7344157 C4.21600584,12.7344157 1.71680293,10.2264128 1.71680293,7.15520926 Z"></path>
                    </g>
                </g>
            </g>
        </g>
    </g>
</svg>